<?xml version="1.0" encoding="iso-8859-1"?>
<!-- Uploaded to: SVG Repo, www.svgrepo.com, Generator: SVG Repo Mixer Tools -->
<svg height="800px" width="800px" version="1.1" id="Capa_1" xmlns="http://www.w3.org/2000/svg" xmlns:xlink="http://www.w3.org/1999/xlink" 
	 viewBox="0 0 311.566 311.566" xml:space="preserve">
<g>
	<path style="fill:#010002;" d="M182.19,28.5l-41.034,27.919c-13.622,9.267-14.756,15.43-2.524,13.772
		c12.232-1.659,21.051,3.216,19.709,10.89c-1.349,7.667,8.431,6.128,21.839-3.449l44.286-31.636"/>
	<g>
		<path style="fill:#010002;" d="M304.439,147.682l-19.828-9.35c3.085-6.814,4.869-13.551,4.869-19.351l0.107-24.309
			c6.015-6.134,8.801-13.384,7.733-20.478c-1.295-8.598-8.085-15.753-18.623-19.607l-94.623-34.668
			c-18.163-6.665-44.811-3.168-60.659,7.936L12.677,105.472c-12.775,8.95-12.703,21.111-12.674,26.905v72.891
			c0,20.079,13.867,42.305,31.63,50.617l75.362,34.566c6.599,3.091,14.243,4.571,22.03,4.571c13.455,0,27.322-4.421,36.905-12.614
			l127.22-94.897c0.179-0.131,0.352-0.274,0.519-0.418c7.22-6.283,19.136-18.467,17.793-29.494
			C310.955,153.321,308.484,149.758,304.439,147.682z M282.171,173.363l-127.196,94.879c-0.179,0.131-0.352,0.274-0.519,0.418
			c-9.821,8.539-28.08,11.086-39.924,5.549L39.17,239.643c-11.528-5.394-21.26-21.141-21.26-34.381v-72.939
			c-0.036-5.865,0.453-8.974,5.042-12.19l110.739-77.617c7.417-5.197,18.837-8.115,29.423-8.115c5.358,0,10.502,0.752,14.804,2.327
			l94.623,34.668c4.887,1.79,6.868,4.069,7.083,5.472c0.161,1.092-0.537,2.995-2.787,5.269c-1.378,0.65-2.566,1.647-3.443,2.87
			L160.124,171.12c-10.573,8.043-29.757,10.269-42.06,4.768l-77.927-33.17c-2.763-1.175-5.937-0.895-8.443,0.77
			c-2.506,1.653-4.016,4.457-4.016,7.465v31.535c0,19.953,14.207,42.09,32.549,50.492l44.25,18.951
			c18.109,8.312,44.203,4.708,59.084-7.936l100.005-77.581c4.314-3.652,8.312-7.984,11.814-12.638l17.059,8.049
			C290.852,164.473,287.636,168.572,282.171,173.363z M271.621,108.832l-0.042,10.108c0,4.392-2.345,11.051-6.271,17.745
			c-0.465,0.561-0.865,1.187-1.187,1.874c-0.042,0.084-0.078,0.161-0.113,0.251c-3.174,4.982-7.184,9.851-11.713,13.7L152.29,230.09
			c-9.977,8.473-28.45,11.015-40.551,5.472l-44.25-18.951c-11.874-5.442-21.898-21.069-21.898-34.131v-18.002l65.319,27.806
			c17.996,8.055,44.376,5,60.051-6.922L271.621,108.832z"/>
	</g>
</g>
</svg>